<?xml version="1.0" standalone="no"?>
<!DOCTYPE svg PUBLIC "-//W3C//DTD SVG 20010904//EN"
 "http://www.w3.org/TR/2001/REC-SVG-20010904/DTD/svg10.dtd">
<svg version="1.0" xmlns="http://www.w3.org/2000/svg"
 width="270.000000pt" height="270.000000pt" viewBox="0 0 270.000000 270.000000"
 preserveAspectRatio="xMidYMid meet">
<metadata>
Created by potrace 1.11, written by Peter Selinger 2001-2013
</metadata>
<g transform="translate(0.000000,270.000000) scale(0.100000,-0.100000)"
fill="#000000" stroke="none">
<path d="M1254 2662 c-34 -14 -137 -72 -507 -286 -17 -10 -133 -76 -257 -147
-150 -86 -237 -143 -262 -170 -70 -76 -69 -66 -66 -725 l3 -589 27 -45 c14
-25 37 -55 50 -66 30 -28 982 -577 1027 -592 86 -30 147 -12 342 102 79 45
164 94 189 108 228 128 630 364 648 381 13 12 36 42 50 67 l27 45 0 610 0 610
-27 45 c-14 25 -37 55 -50 67 -19 18 -250 155 -438 261 -25 14 -157 90 -295
170 -137 79 -267 151 -289 158 -51 19 -122 17 -172 -4z m177 -121 c47 -25 238
-134 774 -444 77 -44 151 -90 164 -101 51 -45 51 -45 51 -641 0 -612 1 -601
-61 -648 -28 -21 -276 -166 -469 -275 -25 -14 -139 -80 -255 -146 -115 -67
-225 -128 -242 -135 -44 -18 -94 -7 -168 36 -33 20 -73 43 -90 53 -16 9 -201
115 -410 235 -209 120 -391 228 -404 239 -51 45 -51 45 -51 641 0 596 0 595
51 641 13 12 193 118 399 237 206 118 421 241 476 274 124 72 156 76 235 34z"/>
<path d="M1019 2142 c-9 -2 -22 -14 -29 -27 -11 -20 -10 -28 4 -50 9 -14 24
-25 34 -26 9 0 115 0 235 0 192 0 221 2 238 17 11 9 17 26 14 38 -2 11 -4 24
-4 28 -2 17 -61 22 -261 23 -119 0 -223 -1 -231 -3z"/>
<path d="M962 1887 c-27 -12 -35 -46 -16 -74 l14 -23 540 0 540 0 16 25 c15
23 15 27 0 50 -9 14 -24 26 -34 27 -76 6 -1044 2 -1060 -5z"/>
<path d="M723 1651 c-5 -3 -15 -15 -21 -26 -11 -20 -1 -52 22 -67 6 -4 72 -8
147 -8 119 0 138 2 152 18 22 24 22 55 0 74 -14 12 -47 16 -154 16 -75 0 -141
-3 -146 -7z"/>
<path d="M1170 1643 c-25 -18 -26 -55 -2 -76 17 -15 58 -17 389 -17 349 0 371
1 387 19 22 24 12 69 -18 81 -12 4 -182 8 -379 7 -290 0 -361 -3 -377 -14z"/>
<path d="M554 1395 c-19 -29 -11 -63 19 -74 17 -6 1489 -9 1533 -3 6 1 16 14
22 28 13 28 3 58 -24 68 -8 3 -357 6 -775 6 l-759 0 -16 -25z"/>
<path d="M554 1145 c-19 -29 -11 -63 19 -74 12 -5 111 -8 220 -7 185 1 200 2
213 20 14 20 11 50 -8 74 -8 9 -64 12 -219 12 l-209 0 -16 -25z"/>
<path d="M1148 1158 c-9 -7 -18 -20 -19 -28 -5 -26 12 -60 29 -62 9 -1 212 -2
449 -3 413 -1 434 -1 453 18 15 13 19 25 14 40 -15 48 -1 47 -468 47 -338 0
-446 -3 -458 -12z"/>
<path d="M646 957 c-24 -18 -24 -64 0 -82 26 -19 624 -19 650 -1 22 17 21 66
-2 83 -26 19 -622 19 -648 0z"/>
<path d="M1467 952 c-19 -21 -22 -49 -7 -72 8 -12 46 -15 228 -17 158 -1 224
1 236 10 25 19 28 55 6 77 -19 19 -35 20 -233 20 -195 0 -215 -2 -230 -18z"/>
<path d="M1200 700 c-16 -16 -18 -24 -9 -49 6 -17 18 -32 27 -35 10 -3 100 -5
201 -4 168 0 185 2 203 20 13 13 17 26 13 41 -14 44 -29 47 -227 47 -173 0
-190 -2 -208 -20z"/>
</g>
</svg>
